{% set width = width ?? '' %}
{% set height = height ?? '' %}
{% set class = class ?? '' %}

<svg
    id="Cart"
    xmlns="http://www.w3.org/2000/svg"
    viewBox="0 0 44 45.537"
    {% if width %}
    width="{{ width }}"
    {% endif %}
    {% if height %}
    height="{{ height }}"
    {% endif %}
    {% if class %}
    class="{{ class }}"
    {% endif %}
>
    <path fill="currentColor" fill-rule="evenodd" d="M38.354,23.024A1.662,1.662,0,0,0,39.9,21.586L44.21,5.119a1.892,1.892,0,0,0-1.184-2.236A1.6,1.6,0,0,0,41.12,4.272l-.454,2.274H11.516L10.674,1.9A1.671,1.671,0,0,0,9.122.431H1.839A1.74,1.74,0,0,0,.252,2.291,1.741,1.741,0,0,0,1.839,4.152h6L11.876,26.4c0,.017-.011.034-.014.052L10.83,32.385a1.747,1.747,0,0,0,.27,1.285,1.251,1.251,0,0,0,1.02.567H38.75a1.563,1.563,0,0,0,0-3.087H13.731L14.279,28Z" transform="translate(-0.252 -0.431)"/>
    <circle fill="currentColor" cx="4" cy="4" r="4" transform="translate(9.312 37.537)"/>
    <circle fill="currentColor" cx="4" cy="4" r="4" transform="translate(33.291 37.537)"/>
</svg>
