<svg xmlns="http://www.w3.org/2000/svg" viewBox="0 0 40 40" class="SvgAccountIcon">
    <path fill="currentColor" fill-rule="evenodd" d="M719.309,58.735c-6.439-2.489-13.588-5.58-14.189-7.505V49.209a12.772,12.772,0,0,0,3.014-5.505,3.273,3.273,0,0,0,.63-4.746V34.434c0-4.669-2.6-7.866-8.541-7.866-5.789,0-8.546,3.2-8.546,7.866v4.524a3.276,3.276,0,0,0,.631,4.744,12.775,12.775,0,0,0,3.014,5.506v2.02c-.6,1.924-7.748,5.015-14.189,7.505a1.439,1.439,0,0,0-.912,1.344v5.053a1.428,1.428,0,0,0,1.417,1.438H718.8a1.429,1.429,0,0,0,1.417-1.438V60.079A1.436,1.436,0,0,0,719.309,58.735Z" transform="translate(-680.221 -26.569)"/>
</svg>
